<svg class="social-media__icon" xmlns="http://www.w3.org/2000/svg" viewBox="0 0 475.08 402"><title>github-logo</title><g id="Layer_2" data-name="Layer 2"><g id="Capa_1" data-name="Capa 1"><path d="M436.24,110.21a150.7,150.7,0,0,0,7.71-48A137.31,137.31,0,0,0,429.39,0q-30.54,0-54,11.14T322.05,45.68a338.44,338.44,0,0,0-79.94-9.14,379.79,379.79,0,0,0-88.22,10q-30.55-24-54-35.26T45.68,0A137.29,137.29,0,0,0,31.12,62.24a154.14,154.14,0,0,0,7.71,48.53Q0,156.18,0,223.84q0,59.39,17.7,94.51a118.77,118.77,0,0,0,24.55,32.83A126.32,126.32,0,0,0,76.8,374.31,300.86,300.86,0,0,0,115.92,389a253.32,253.32,0,0,0,43.54,8.56q23.84,2.72,42.11,3.58t40.54.85q26.26,0,47.68-1.28a419.9,419.9,0,0,0,49-6.28q27.55-5,48.54-13.57a154.59,154.59,0,0,0,40.26-24.55,115.15,115.15,0,0,0,30.12-38q17.41-35.4,17.41-94.51Q475.07,155.89,436.24,110.21ZM402,317.91q-9.14,18.71-23.13,29.41T344,364.46a209.88,209.88,0,0,1-40,8.42,411.64,411.64,0,0,1-42.54,2h-48a411.54,411.54,0,0,1-42.54-2,209.85,209.85,0,0,1-40-8.42Q110.21,358,96.21,347.32T73.09,317.91Q64,299.21,64,274.09q0-34.27,19.7-58.24t53.39-24q12.28,0,55.68,6A294.06,294.06,0,0,0,237.54,201a293.62,293.62,0,0,0,44.82-3.14q44-6,55.68-6,33.69,0,53.39,24t19.7,58.24Q411.13,299.21,402,317.91Z"/><path d="M166.88,229q-8.71-9.71-20.7-9.71T125.47,229a56.23,56.23,0,0,0-12.28,21.69,78.57,78.57,0,0,0,0,46.84,56.09,56.09,0,0,0,12.28,21.69q8.71,9.71,20.7,9.71t20.7-9.71a56.17,56.17,0,0,0,12.27-21.69,78.57,78.57,0,0,0,0-46.84A56.25,56.25,0,0,0,166.88,229Z"/><path d="M349.6,229q-8.71-9.71-20.7-9.71T308.2,229a56.16,56.16,0,0,0-12.27,21.69,78.47,78.47,0,0,0,0,46.84,56.13,56.13,0,0,0,12.27,21.69q8.71,9.71,20.7,9.71t20.7-9.71a56.27,56.27,0,0,0,12.28-21.69,78.61,78.61,0,0,0,0-46.84A56.36,56.36,0,0,0,349.6,229Z"/></g></g></svg>
