<svg class="social-media__icon" xmlns="http://www.w3.org/2000/svg" viewBox="0 0 430.12 296.31"><title>twitter-logo</title><g id="Layer_2" data-name="Layer 2"><g id="Capa_1" data-name="Capa 1"><path id="Twitter_alt_" data-name="Twitter (alt)" d="M381.38,131.73c24.16-2,40.54-13,46.85-27.88-8.71,5.35-35.76,11.19-50.7,5.63-.73-3.51-1.55-6.84-2.35-9.85-11.38-41.8-50.36-75.47-91.19-71.4,3.3-1.33,6.65-2.58,10-3.69,4.49-1.61,30.87-5.9,26.71-15.21-3.5-8.19-35.72,6.19-41.79,8.07,8-3,21.25-8.19,22.67-17.4A64,64,0,0,0,268,15.92c3.36-3.62,5.91-8,6.45-12.77-32.73,20.91-51.84,63.06-67.31,103.94-12.15-11.77-22.91-21-32.57-26.19C147.42,66.37,115,51.21,64.16,32.33,62.6,49.16,72.48,71.53,101,86.41c-6.17-.83-17.45,1-26.48,3.18,3.68,19.28,15.68,35.16,48.17,42.84-14.85,1-22.52,4.36-29.48,11.64,6.76,13.41,23.27,29.19,53,25.95-33,14.23-13.46,40.57,13.4,36.64C113.71,254,41.48,250.5,0,210.92c108.3,147.57,343.72,87.27,378.8-54.87,26.29.22,41.74-9.1,51.32-19.39C415,139.24,393,136.58,381.38,131.73Z"/></g></g></svg>
