<svg class="social-media__icon" xmlns="http://www.w3.org/2000/svg" viewBox="0 0 90 90.2"><title>wordpress-logo</title><g id="Layer_2" data-name="Layer 2"><g id="Capa_1" data-name="Capa 1"><path id="WordPress_alt_" data-name="WordPress (alt)" d="M5.08,23.15C12.59,9.15,27.64,0,45,0,56.24,0,66.5,4.79,74.39,11.55A10.43,10.43,0,0,0,67.2,13c-5.8,3.33-7.7,12.74-.18,17.47,4.7,2.94,6.37,10.28,6.21,14.77S62.31,70.4,62.31,70.4l-10.48-36s-.36-2.52-.36-3.25a4.37,4.37,0,0,1,.87-2.68c.39-.43,1-1.32,1.69-1.32h5v-4H32v4h.84c.88,0,1.75,1.19,2.58,2,1,1,2.23,4.85,3.73,8.82L43.08,51,34.61,70.5,25.33,31.43s.27-2.68.83-3.13c.37-.31.93-1.14,1.58-1.14H28v-4Zm5.29,6.79s-2.18-2.79-4.5-2.79H3.52A45.57,45.57,0,0,0,0,45,44.65,44.65,0,0,0,27.53,86.18ZM83.72,22.8a28.9,28.9,0,0,1-1,14.39C78.38,51.28,67.61,76.62,63.44,86.27A44.64,44.64,0,0,0,90,45.54,44.19,44.19,0,0,0,83.72,22.8Zm-37.81,38L34.4,88.94A45.36,45.36,0,0,0,56,88.86Z"/></g></g></svg>
